<?xml version="1.0" encoding="UTF-8"?>
<svg width="20px" height="20px" viewBox="0 0 20 20" version="1.1" xmlns="http://www.w3.org/2000/svg" xmlns:xlink="http://www.w3.org/1999/xlink">
    <title>527D99F8-743C-4BE8-8C16-CBBF0F98AAFD</title>
    <g id="Components-Guide" stroke="none" stroke-width="1" fill="none" fill-rule="evenodd">
        <g id="Rugby-Masters---Components-Guide" transform="translate(-801.000000, -2372.000000)" fill="#141630">
            <g id="header_logged_in_profile_icon" transform="translate(801.000000, 2372.000000)">
                <path d="M13.6363636,7.27272727 C13.6363636,9.281 12.0082727,10.9090909 10,10.9090909 C7.99169091,10.9090909 6.36363636,9.281 6.36363636,7.27272727 C6.36363636,5.26441818 7.99169091,3.63636364 10,3.63636364 C12.0082727,3.63636364 13.6363636,5.26441818 13.6363636,7.27272727 Z M11.8181818,7.27272727 C11.8181818,8.27690909 11.0041818,9.09090909 10,9.09090909 C8.99581818,9.09090909 8.18181818,8.27690909 8.18181818,7.27272727 C8.18181818,6.26857273 8.99581818,5.45454545 10,5.45454545 C11.0041818,5.45454545 11.8181818,6.26857273 11.8181818,7.27272727 Z" id="Shape"></path>
                <path d="M10,0 C4.47715455,0 0,4.47715455 0,10 C0,15.5228182 4.47715455,20 10,20 C15.5228182,20 20,15.5228182 20,10 C20,4.47715455 15.5228182,0 10,0 Z M1.81818182,10 C1.81818182,11.9001818 2.46595455,13.6490909 3.55270909,15.0379091 C5.04768182,13.0808182 7.4057,11.8181818 10.0586364,11.8181818 C12.6770909,11.8181818 15.0083636,13.0482727 16.5059091,14.9620909 C17.5572727,13.5857273 18.1818182,11.8658182 18.1818182,10 C18.1818182,5.48130909 14.5187273,1.81818182 10,1.81818182 C5.48130909,1.81818182 1.81818182,5.48130909 1.81818182,10 Z M10,18.1818182 C8.04524545,18.1818182 6.25059091,17.4962727 4.84333636,16.3525455 C5.99410909,14.7101818 7.90096364,13.6363636 10.0586364,13.6363636 C12.1894545,13.6363636 14.0757273,14.6837273 15.2307273,16.2917273 C13.8126364,17.4719091 11.9891818,18.1818182 10,18.1818182 Z" id="Shape"></path>
            </g>
        </g>
    </g>
</svg>