<?xml version="1.0" encoding="UTF-8"?>
<svg width="19px" height="19px" viewBox="0 0 19 19" version="1.1" xmlns="http://www.w3.org/2000/svg" xmlns:xlink="http://www.w3.org/1999/xlink">
    <title>F02BDD59-141E-4093-B45A-739080A417F6</title>
    <g id="Components-Guide" stroke="none" stroke-width="1" fill="none" fill-rule="evenodd">
        <g id="Rugby-Masters---Components-Guide" transform="translate(-1013.000000, -2372.000000)">
            <g id="404_back_arrow" transform="translate(1022.500000, 2381.500000) rotate(90.000000) translate(-1022.500000, -2381.500000) translate(1013.000000, 2372.000000)">
                <rect id="Rectangle-Copy" x="0" y="0" width="19" height="19"></rect>
                <path d="M14.782,5.8 L9,11.582 L3.218,5.8 C2.828,5.41 2.194,5.41 1.804,5.8 C1.414,6.19 1.414,6.824 1.804,7.214 L8.29,13.7 C8.486,13.896 8.744,13.994 9,13.992 C9.258,13.992 9.514,13.896 9.71,13.7 L16.196,7.214 C16.586,6.824 16.586,6.19 16.196,5.8 C15.806,5.41 15.172,5.41 14.782,5.8 L14.782,5.8 Z" id="Shape" fill="#EF7D3F" fill-rule="nonzero"></path>
            </g>
        </g>
    </g>
</svg>