<?xml version="1.0" encoding="UTF-8"?>
<svg width="20px" height="20px" viewBox="0 0 20 20" version="1.1" xmlns="http://www.w3.org/2000/svg" xmlns:xlink="http://www.w3.org/1999/xlink">
    <title>88855DC7-EF6D-421D-A2CB-1E125B275083</title>
    <g id="Components-Guide" stroke="none" stroke-width="1" fill="none" fill-rule="evenodd">
        <g id="Rugby-Masters---Components-Guide" transform="translate(-871.000000, -2373.000000)" fill="#EF7D3F">
            <g id="account_pending_verification_icon" transform="translate(871.000000, 2373.000000)">
                <path d="M10,4 C10.5523,4 11,4.44772 11,5 L11,11 C11,11.5523 10.5523,12 10,12 C9.4477,12 9,11.5523 9,11 L9,5 C9,4.44772 9.4477,4 10,4 Z" id="Path" fill-rule="nonzero"></path>
                <path d="M10,14 C9.4477,14 9,14.4477 9,15 C9,15.5523 9.4477,16 10,16 C10.5523,16 11,15.5523 11,15 C11,14.4477 10.5523,14 10,14 Z" id="Path" fill-rule="nonzero"></path>
                <path d="M10,0 C4.47715,0 0,4.47715 0,10 C0,15.5228 4.47715,20 10,20 C15.5228,20 20,15.5228 20,10 C20,4.47715 15.5228,0 10,0 Z M2,10 C2,14.4183 5.58172,18 10,18 C14.4183,18 18,14.4183 18,10 C18,5.58172 14.4183,2 10,2 C5.58172,2 2,5.58172 2,10 Z" id="Shape"></path>
            </g>
        </g>
    </g>
</svg>