<?xml version="1.0" encoding="UTF-8"?>
<svg width="25px" height="25px" viewBox="0 0 25 25" version="1.1" xmlns="http://www.w3.org/2000/svg" xmlns:xlink="http://www.w3.org/1999/xlink">
    <title>F61C2F50-8635-4BC6-802C-372EB8F78B28</title>
    <g id="Components-Guide" stroke="none" stroke-width="1" fill="none" fill-rule="evenodd">
        <g id="Rugby-Masters---Components-Guide" transform="translate(-453.000000, -2370.000000)">
            <g id="cart_trash_icon" transform="translate(453.000000, 2370.000000)">
                <rect id="Rectangle" x="0" y="0" width="25" height="25"></rect>
                <path d="M17,6 L17,5 C17,3.89543 16.1046,3 15,3 L9,3 C7.89543,3 7,3.89543 7,5 L7,6 L4,6 C3.44772,6 3,6.44772 3,7 C3,7.55228 3.44772,8 4,8 L5,8 L5,19 C5,20.6569 6.34315,22 8,22 L16,22 C17.6569,22 19,20.6569 19,19 L19,8 L20,8 C20.5523,8 21,7.55228 21,7 C21,6.44772 20.5523,6 20,6 L17,6 Z M15,5 L9,5 L9,6 L15,6 L15,5 Z M17,8 L7,8 L7,19 C7,19.5523 7.44772,20 8,20 L16,20 C16.5523,20 17,19.5523 17,19 L17,8 Z" id="Shape" fill="#000000"></path>
                <polygon id="Path" fill="#000000" fill-rule="nonzero" points="9 10 11 10 11 18 9 18"></polygon>
                <polygon id="Path" fill="#000000" fill-rule="nonzero" points="13 10 15 10 15 18 13 18"></polygon>
            </g>
        </g>
    </g>
</svg>