<?xml version="1.0" encoding="UTF-8"?>
<svg width="20px" height="20px" viewBox="0 0 20 20" version="1.1" xmlns="http://www.w3.org/2000/svg" xmlns:xlink="http://www.w3.org/1999/xlink">
    <title>E0A9E471-9872-4159-9A64-4CF67FF5B3A3</title>
    <defs>
        <linearGradient x1="42.2685149%" y1="80.127793%" x2="46.1750882%" y2="9.66945142%" id="linearGradient-1">
            <stop stop-color="#E15B11" offset="0%"></stop>
            <stop stop-color="#EB9845" offset="54%"></stop>
            <stop stop-color="#EF7D3F" offset="100%"></stop>
        </linearGradient>
    </defs>
    <g id="Components-Guide" stroke="none" stroke-width="1" fill="none" fill-rule="evenodd">
        <g id="Rugby-Masters---Components-Guide" transform="translate(-1287.000000, -6534.000000)">
            <g id="header_profile_arrow_dropdown_icon" transform="translate(1287.000000, 6534.000000)">
                <rect id="Rectangle" x="0" y="0" width="20" height="20"></rect>
                <path d="M15.782,5.8 L10,11.582 L4.218,5.8 C3.828,5.41 3.194,5.41 2.804,5.8 C2.414,6.19 2.414,6.824 2.804,7.214 L9.29,13.7 C9.486,13.896 9.744,13.994 10,13.992 C10.258,13.992 10.514,13.896 10.71,13.7 L17.196,7.214 C17.586,6.824 17.586,6.19 17.196,5.8 C16.806,5.41 16.172,5.41 15.782,5.8 L15.782,5.8 Z" id="Shape" fill="url(#linearGradient-1)" fill-rule="nonzero"></path>
            </g>
        </g>
    </g>
</svg>