<?xml version="1.0" encoding="UTF-8"?>
<svg width="28px" height="28px" viewBox="0 0 28 28" version="1.1" xmlns="http://www.w3.org/2000/svg" xmlns:xlink="http://www.w3.org/1999/xlink">
    <title>C5B42E1A-B913-44D5-AB2F-2953AE0DF921</title>
    <g id="Components-Guide" stroke="none" stroke-width="1" fill="none" fill-rule="evenodd" opacity="0.4">
        <g id="Rugby-Masters---Components-Guide" transform="translate(-300.000000, -2367.000000)">
            <g id="password_visibility_icon" transform="translate(300.000000, 2367.000000)">
                <rect id="Rectangle" x="0" y="0" width="28" height="28"></rect>
                <path d="M18,14 C18,16.2091 16.2091,18 14,18 C11.79086,18 10,16.2091 10,14 C10,11.79086 11.79086,10 14,10 C16.2091,10 18,11.79086 18,14 Z M16,14 C16,15.1046 15.1046,16 14,16 C12.8954,16 12,15.1046 12,14 C12,12.8954 12.8954,12 14,12 C15.1046,12 16,12.8954 16,14 Z" id="Shape" fill="#141630"></path>
                <path d="M14,5 C19.5915,5 24.2898,8.82432 25.6219,14 C24.2898,19.1757 19.5915,23 14,23 C8.40848,23 3.71018,19.1757 2.378052,14 C3.71018,8.82432 8.40848,5 14,5 Z M14,21 C9.52443,21 5.73132,18.0581 4.45723,14 C5.73132,9.94186 9.52443,7 14,7 C18.4756,7 22.2687,9.94186 23.5428,14 C22.2687,18.0581 18.4756,21 14,21 Z" id="Shape" fill="#141630"></path>
            </g>
        </g>
    </g>
</svg>