<?xml version="1.0" encoding="UTF-8"?>
<svg width="24px" height="24px" viewBox="0 0 24 24" version="1.1" xmlns="http://www.w3.org/2000/svg" xmlns:xlink="http://www.w3.org/1999/xlink">
    <title>52F17AFE-5991-4F19-9584-CD602D1B6409</title>
    <g id="Components-Guide" stroke="none" stroke-width="1" fill="none" fill-rule="evenodd">
        <g id="Rugby-Masters---Components-Guide" transform="translate(-439.000000, -2492.000000)">
            <g id="browse_filters_right_arrow" transform="translate(451.000000, 2504.000000) rotate(180.000000) translate(-451.000000, -2504.000000) translate(439.000000, 2492.000000)">
                <rect id="Rectangle" x="0" y="0" width="24" height="24"></rect>
                <path d="M8.26666667,12.165625 L14.032,18.24625 C14.3786667,18.611875 14.9422222,18.611875 15.2888889,18.24625 C15.6355556,17.880625 15.6355556,17.28625 15.2888889,16.920625 L10.1493333,11.5 L15.2888889,6.079375 C15.6355556,5.71375 15.6355556,5.119375 15.2888889,4.75375 C14.9422222,4.388125 14.3786667,4.388125 14.032,4.75375 L8.26666667,10.834375 C8.09244444,11.018125 8.00711111,11.258125 8.00711111,11.5 C8.00711111,11.741875 8.09244444,11.981875 8.26666667,12.165625 L8.26666667,12.165625 Z" id="Shape" fill="#FFFFFF"></path>
            </g>
        </g>
    </g>
</svg>