<?xml version="1.0" encoding="UTF-8"?>
<svg width="54px" height="54px" viewBox="0 0 54 54" version="1.1" xmlns="http://www.w3.org/2000/svg" xmlns:xlink="http://www.w3.org/1999/xlink">
    <title>F717009D-9413-41E2-B0E8-4BA15999FF5B</title>
    <g id="Components-Guide" stroke="none" stroke-width="1" fill="none" fill-rule="evenodd">
        <g id="Rugby-Masters---Components-Guide" transform="translate(-157.000000, -2476.000000)" fill="#FFFFFF">
            <g id="featured_coach_left_arrow" transform="translate(184.000000, 2503.000000) scale(1, -1) rotate(180.000000) translate(-184.000000, -2503.000000) translate(157.000000, 2476.000000)">
                <polygon id="Path" fill-rule="nonzero" points="24.5000557 17 35 27.4998886 24.5000557 38 21 34.5000454 28.0000371 27.4998886 21 20.4999794"></polygon>
                <path d="M27,0 C12.0883173,0 0,12.0883173 0,27 C0,41.9116091 12.0883173,54 27,54 C41.9116091,54 54,41.9116091 54,27 C54,12.0883173 41.9116091,0 27,0 Z M49.0909091,27 C49.0909091,14.7995345 39.2005636,4.90909091 27,4.90909091 C14.7995345,4.90909091 4.90909091,14.7995345 4.90909091,27 C4.90909091,39.2005636 14.7995345,49.0909091 27,49.0909091 C39.2005636,49.0909091 49.0909091,39.2005636 49.0909091,27 Z" id="Shape"></path>
            </g>
        </g>
    </g>
</svg>