<?xml version="1.0" encoding="UTF-8"?>
<svg width="32px" height="21px" viewBox="0 0 32 21" version="1.1" xmlns="http://www.w3.org/2000/svg" xmlns:xlink="http://www.w3.org/1999/xlink">
    <title>0F0C7FE6-1773-42C2-A56E-303A6F0F8F51</title>
    <g id="Components-Guide" stroke="none" stroke-width="1" fill="none" fill-rule="evenodd">
        <g id="Rugby-Masters---Components-Guide" transform="translate(-123.000000, -2620.000000)">
            <g id="mc_symbol" transform="translate(123.000000, 2620.000000)">
                <g id="Group" opacity="0" fill="#FFFFFF" fill-rule="nonzero">
                    <rect id="Rectangle" x="0" y="0" width="31.5336" height="20.856"></rect>
                </g>
                <rect id="Rectangle" x="0" y="0" width="32" height="21"></rect>
                <rect id="Rectangle" fill="#FF5F00" fill-rule="nonzero" x="11.6088" y="3.6336" width="8.3184" height="13.5864"></rect>
                <path d="M12.4656,10.428 C12.4635114,7.77720035 13.6803861,5.27265089 15.7656,3.636 C12.2231497,0.852012428 7.13604895,1.25752429 4.07937549,4.56755275 C1.02270203,7.87758122 1.02270203,12.9808188 4.07937549,16.2908472 C7.13604895,19.6008757 12.2231497,20.0063876 15.7656,17.2224 C13.6797225,15.5852294 12.4627734,13.0796419 12.4656,10.428 Z" id="Path" fill="#EB001B" fill-rule="nonzero"></path>
                <path d="M28.92,15.7824 L28.92,15.504 L29.04,15.504 L29.04,15.4464 L28.7544,15.4464 L28.7544,15.504 L28.8672,15.504 L28.8672,15.7824 L28.92,15.7824 Z M29.4744,15.7824 L29.4744,15.4464 L29.388,15.4464 L29.2872,15.6864 L29.1864,15.4464 L29.1,15.4464 L29.1,15.7824 L29.1624,15.7824 L29.1624,15.528 L29.256,15.7464 L29.3208,15.7464 L29.4144,15.528 L29.4144,15.7824 L29.4744,15.7824 Z" id="Shape" fill="#F79E1B" fill-rule="nonzero"></path>
                <path d="M29.7456,10.428 C29.7456,13.7360113 27.856661,16.7535961 24.8812213,18.1991745 C21.9057815,19.644753 18.3661415,19.2645348 15.7656,17.22 C17.8499041,15.5819596 19.0668704,13.0777432 19.0668704,10.4268 C19.0668704,7.77585684 17.8499041,5.27164036 15.7656,3.6336 C18.3661415,1.58906524 21.9057815,1.20884702 24.8812213,2.65442547 C27.856661,4.10000392 29.7456,7.11758871 29.7456,10.4256 L29.7456,10.428 Z" id="Path" fill="#F79E1B" fill-rule="nonzero"></path>
            </g>
        </g>
    </g>
</svg>