<?xml version="1.0" encoding="UTF-8"?>
<svg width="32px" height="21px" viewBox="0 0 32 21" version="1.1" xmlns="http://www.w3.org/2000/svg" xmlns:xlink="http://www.w3.org/1999/xlink">
    <title>0D2E1FAE-8379-41DC-B5F7-4D29E6148981</title>
    <defs>
        <rect id="path-1" x="0" y="0" width="32" height="21"></rect>
        <linearGradient x1="45.9741966%" y1="-1.89578545%" x2="54.8768726%" y2="99.8938691%" id="linearGradient-3">
            <stop stop-color="#222357" offset="0%"></stop>
            <stop stop-color="#254AA5" offset="100%"></stop>
        </linearGradient>
    </defs>
    <g id="Components-Guide" stroke="none" stroke-width="1" fill="none" fill-rule="evenodd">
        <g id="Rugby-Masters---Components-Guide" transform="translate(-183.000000, -2620.000000)">
            <g id="Visa_symbol" transform="translate(183.000000, 2620.000000)">
                <g id="Group" opacity="0" fill="#FFFFFF" fill-rule="nonzero">
                    <rect id="Rectangle" x="0" y="0" width="31.5336" height="20.856"></rect>
                </g>
                <mask id="mask-2" fill="white">
                    <use xlink:href="#path-1"></use>
                </mask>
                <g id="Rectangle"></g>
                <path d="M16.0863714,11.80305 C16.0677758,10.41008 17.3929532,9.6326948 18.3912405,9.17054119 C19.4169318,8.69629904 19.7614387,8.39222614 19.7575238,7.96819787 C19.7496941,7.31913706 18.9393197,7.032732 18.1808172,7.02157336 C16.8575973,7.00204574 16.0883287,7.36098196 15.4766332,7.63250883 L15,5.51329738 C15.613653,5.24456016 16.7499388,5.01022875 17.9283093,5 C20.6941521,5 22.5037925,6.29719173 22.5135797,8.30853635 C22.5243455,10.8610749 18.7974064,11.0024177 18.8228529,12.1433885 C18.8316613,12.4893063 19.1791045,12.8584713 19.9405431,12.9523898 C20.3173476,12.999814 21.3577196,13.0360796 22.5370687,12.5199925 L23,14.5703924 C22.3657939,14.7898456 21.550526,15 20.5356007,15 C17.9322241,15 16.1010521,13.6851404 16.0863714,11.80305 M26.831952,15 C26.3508081,15 25.9451928,14.7106326 25.7642976,14.2664872 L22,5 L24.6332367,5 L25.1572732,6.49298212 L28.3751555,6.49298212 L28.6791338,5 L31,5 L28.9747203,15 L26.831952,15 M27.2697133,13 L28,9 L26,9 L27.2697133,13 M13.2640358,15 L11,5 L13.7369812,5 L16,15 L13.2640358,15 M9.31793738,15 L6.65960141,8.1936166 L5.58430876,13.9809652 C5.45808288,14.6269948 4.95982285,15 4.40651692,15 L0.0607402721,15 L0,14.7096712 C0.892122748,14.5135551 1.90572604,14.1972697 2.51977222,13.8588733 C2.89560266,13.6521823 3.00284719,13.4714478 3.12622587,12.9801961 L5.16292312,5 L7.86206895,5 L12,15 L9.31793738,15" id="Shape" fill="url(#linearGradient-3)" fill-rule="nonzero" mask="url(#mask-2)" transform="translate(15.500000, 10.000000) scale(-1, 1) rotate(-180.000000) translate(-15.500000, -10.000000) "></path>
            </g>
        </g>
    </g>
</svg>